<svg xmlns="http://www.w3.org/2000/svg" xmlns:xlink="http://www.w3.org/1999/xlink" width="1080" zoomAndPan="magnify" viewBox="0 0 810 809.999993" height="1080" preserveAspectRatio="xMidYMid meet" version="1.0"><path fill="#ffcc4d" d="M 652.488281 403.671875 C 652.488281 407.722656 652.390625 411.765625 652.191406 415.808594 C 651.992188 419.851562 651.695312 423.886719 651.296875 427.914062 C 650.902344 431.941406 650.40625 435.960938 649.8125 439.964844 C 649.214844 443.96875 648.523438 447.953125 647.734375 451.921875 C 646.945312 455.894531 646.058594 459.839844 645.074219 463.769531 C 644.089844 467.695312 643.007812 471.59375 641.832031 475.46875 C 640.65625 479.339844 639.386719 483.183594 638.023438 486.992188 C 636.65625 490.804688 635.199219 494.582031 633.652344 498.320312 C 632.101562 502.058594 630.460938 505.757812 628.726562 509.417969 C 626.996094 513.078125 625.175781 516.691406 623.265625 520.261719 C 621.355469 523.832031 619.359375 527.351562 617.277344 530.824219 C 615.195312 534.292969 613.03125 537.714844 610.78125 541.078125 C 608.53125 544.445312 606.199219 547.753906 603.785156 551.003906 C 601.371094 554.253906 598.882812 557.445312 596.3125 560.574219 C 593.742188 563.703125 591.097656 566.765625 588.378906 569.765625 C 585.65625 572.765625 582.867188 575.695312 580 578.558594 C 577.136719 581.417969 574.203125 584.210938 571.203125 586.929688 C 568.203125 589.644531 565.136719 592.289062 562.003906 594.855469 C 558.875 597.425781 555.683594 599.914062 552.429688 602.324219 C 549.175781 604.738281 545.867188 607.066406 542.496094 609.316406 C 539.128906 611.5625 535.710938 613.730469 532.234375 615.808594 C 528.761719 617.890625 525.238281 619.886719 521.664062 621.792969 C 518.09375 623.703125 514.476562 625.519531 510.816406 627.25 C 507.152344 628.980469 503.453125 630.621094 499.710938 632.171875 C 495.96875 633.71875 492.191406 635.175781 488.375 636.539062 C 484.5625 637.902344 480.71875 639.171875 476.84375 640.347656 C 472.964844 641.523438 469.0625 642.601562 465.136719 643.585938 C 461.207031 644.570312 457.253906 645.457031 453.28125 646.246094 C 449.308594 647.035156 445.320312 647.726562 441.3125 648.320312 C 437.308594 648.914062 433.289062 649.410156 429.257812 649.804688 C 425.226562 650.203125 421.1875 650.5 417.144531 650.699219 C 413.097656 650.898438 409.050781 650.996094 405 650.996094 C 400.949219 650.996094 396.902344 650.898438 392.855469 650.699219 C 388.8125 650.5 384.773438 650.203125 380.742188 649.804688 C 376.710938 649.410156 372.691406 648.914062 368.6875 648.320312 C 364.679688 647.726562 360.691406 647.035156 356.71875 646.246094 C 352.746094 645.457031 348.792969 644.570312 344.863281 643.585938 C 340.9375 642.601562 337.035156 641.523438 333.15625 640.347656 C 329.28125 639.171875 325.4375 637.902344 321.625 636.539062 C 317.808594 635.175781 314.03125 633.71875 310.289062 632.171875 C 306.546875 630.621094 302.847656 628.980469 299.183594 627.25 C 295.523438 625.519531 291.90625 623.703125 288.335938 621.792969 C 284.761719 619.886719 281.238281 617.890625 277.765625 615.808594 C 274.289062 613.730469 270.871094 611.5625 267.503906 609.316406 C 264.132812 607.066406 260.824219 604.738281 257.570312 602.324219 C 254.316406 599.914062 251.125 597.425781 247.996094 594.855469 C 244.863281 592.289062 241.796875 589.644531 238.796875 586.929688 C 235.796875 584.210938 232.863281 581.417969 230 578.558594 C 227.132812 575.695312 224.34375 572.765625 221.621094 569.765625 C 218.902344 566.765625 216.257812 563.703125 213.6875 560.574219 C 211.117188 557.445312 208.628906 554.253906 206.214844 551.003906 C 203.800781 547.753906 201.46875 544.445312 199.21875 541.078125 C 196.96875 537.714844 194.804688 534.292969 192.722656 530.824219 C 190.636719 527.351562 188.644531 523.832031 186.734375 520.261719 C 184.824219 516.691406 183.003906 513.078125 181.273438 509.417969 C 179.539062 505.757812 177.898438 502.058594 176.347656 498.320312 C 174.800781 494.582031 173.34375 490.804688 171.976562 486.992188 C 170.613281 483.183594 169.34375 479.339844 168.167969 475.46875 C 166.992188 471.59375 165.910156 467.695312 164.925781 463.769531 C 163.941406 459.839844 163.054688 455.894531 162.265625 451.921875 C 161.476562 447.953125 160.785156 443.96875 160.1875 439.964844 C 159.59375 435.960938 159.097656 431.941406 158.703125 427.914062 C 158.304688 423.886719 158.007812 419.851562 157.808594 415.808594 C 157.609375 411.765625 157.511719 407.722656 157.511719 403.671875 C 157.511719 399.625 157.609375 395.582031 157.808594 391.539062 C 158.007812 387.496094 158.304688 383.460938 158.703125 379.429688 C 159.097656 375.402344 159.59375 371.386719 160.1875 367.382812 C 160.785156 363.378906 161.476562 359.390625 162.265625 355.421875 C 163.054688 351.453125 163.941406 347.503906 164.925781 343.578125 C 165.910156 339.652344 166.992188 335.753906 168.167969 331.878906 C 169.34375 328.003906 170.613281 324.164062 171.976562 320.351562 C 173.34375 316.542969 174.800781 312.765625 176.347656 309.027344 C 177.898438 305.285156 179.539062 301.585938 181.273438 297.929688 C 183.003906 294.269531 184.824219 290.65625 186.734375 287.085938 C 188.644531 283.515625 190.636719 279.996094 192.722656 276.523438 C 194.804688 273.050781 196.96875 269.632812 199.21875 266.265625 C 201.46875 262.902344 203.800781 259.59375 206.214844 256.34375 C 208.628906 253.089844 211.117188 249.902344 213.6875 246.773438 C 216.257812 243.644531 218.902344 240.578125 221.621094 237.582031 C 224.34375 234.582031 227.132812 231.652344 230 228.789062 C 232.863281 225.925781 235.796875 223.136719 238.796875 220.417969 C 241.796875 217.699219 244.863281 215.058594 247.996094 212.488281 C 251.125 209.921875 254.316406 207.433594 257.570312 205.019531 C 260.824219 202.609375 264.132812 200.28125 267.503906 198.03125 C 270.871094 195.78125 274.289062 193.617188 277.765625 191.535156 C 281.238281 189.457031 284.761719 187.460938 288.335938 185.554688 C 291.90625 183.644531 295.523438 181.824219 299.183594 180.09375 C 302.847656 178.363281 306.546875 176.722656 310.289062 175.175781 C 314.03125 173.625 317.808594 172.171875 321.625 170.804688 C 325.4375 169.441406 329.28125 168.171875 333.15625 167 C 337.035156 165.824219 340.9375 164.746094 344.863281 163.761719 C 348.792969 162.777344 352.746094 161.890625 356.71875 161.101562 C 360.691406 160.3125 364.679688 159.621094 368.6875 159.027344 C 372.691406 158.433594 376.710938 157.9375 380.742188 157.539062 C 384.773438 157.144531 388.8125 156.84375 392.855469 156.648438 C 396.902344 156.449219 400.949219 156.347656 405 156.347656 C 409.050781 156.347656 413.097656 156.449219 417.144531 156.648438 C 421.1875 156.84375 425.226562 157.144531 429.257812 157.539062 C 433.289062 157.9375 437.308594 158.433594 441.3125 159.027344 C 445.320312 159.621094 449.308594 160.3125 453.28125 161.101562 C 457.253906 161.890625 461.207031 162.777344 465.136719 163.761719 C 469.0625 164.746094 472.964844 165.824219 476.84375 167 C 480.71875 168.171875 484.5625 169.441406 488.375 170.804688 C 492.191406 172.171875 495.96875 173.625 499.710938 175.175781 C 503.453125 176.722656 507.152344 178.363281 510.816406 180.09375 C 514.476562 181.824219 518.09375 183.644531 521.664062 185.554688 C 525.238281 187.460938 528.761719 189.457031 532.234375 191.535156 C 535.710938 193.617188 539.128906 195.78125 542.496094 198.03125 C 545.867188 200.28125 549.175781 202.609375 552.429688 205.019531 C 555.683594 207.433594 558.875 209.921875 562.003906 212.488281 C 565.136719 215.058594 568.203125 217.699219 571.203125 220.417969 C 574.203125 223.136719 577.136719 225.925781 580 228.789062 C 582.867188 231.652344 585.65625 234.582031 588.378906 237.582031 C 591.097656 240.578125 593.742188 243.644531 596.3125 246.773438 C 598.882812 249.902344 601.371094 253.089844 603.785156 256.34375 C 606.199219 259.59375 608.53125 262.902344 610.78125 266.265625 C 613.03125 269.632812 615.195312 273.050781 617.277344 276.523438 C 619.359375 279.996094 621.355469 283.515625 623.265625 287.085938 C 625.175781 290.65625 626.996094 294.269531 628.726562 297.929688 C 630.460938 301.585938 632.101562 305.285156 633.652344 309.027344 C 635.199219 312.765625 636.65625 316.542969 638.023438 320.351562 C 639.386719 324.164062 640.65625 328.003906 641.832031 331.878906 C 643.007812 335.753906 644.089844 339.652344 645.074219 343.578125 C 646.058594 347.503906 646.945312 351.453125 647.734375 355.421875 C 648.523438 359.390625 649.214844 363.378906 649.8125 367.382812 C 650.40625 371.386719 650.902344 375.402344 651.296875 379.429688 C 651.695312 383.460938 651.992188 387.496094 652.191406 391.539062 C 652.390625 395.582031 652.488281 399.625 652.488281 403.671875 Z M 652.488281 403.671875 " fill-opacity="1" fill-rule="nonzero"/><path fill="#f4900c" d="M 225.15625 513.550781 C 202.359375 515.101562 186.070312 506.429688 174.171875 492.34375 C 179.125 505.226562 185.445312 517.34375 192.410156 529.070312 C 210.253906 535.753906 229.230469 538.550781 251.191406 522.777344 C 240.476562 517.527344 230.828125 513.179688 225.15625 513.550781 Z M 522.703125 186.460938 C 523.746094 194.046875 518.375 198.023438 505.347656 194.855469 C 483.246094 189.492188 463.851562 212.804688 452.71875 232.300781 C 430.804688 270.621094 340.386719 313.800781 340.316406 280.566406 C 340.292969 264.863281 260.425781 300.0625 250.21875 284.289062 C 240.570312 269.394531 211.734375 275.132812 205.761719 257.277344 C 179.496094 292.984375 162.507812 335.957031 158.550781 382.671875 C 167.277344 399.277344 178.546875 412.324219 189.839844 417.964844 C 205.113281 425.597656 276.070312 453.304688 286.4375 435.613281 C 303.726562 406.101562 407.453125 426.984375 404.976562 411.46875 C 400.234375 381.75 461.144531 406.148438 483.039062 367.847656 C 494.191406 348.351562 518.515625 333.390625 540.640625 338.753906 C 566.46875 345.023438 598.335938 300.757812 595.929688 246.335938 C 575.769531 221.890625 550.777344 201.679688 522.703125 186.460938 Z M 596.320312 560.546875 C 588.5 564.386719 580.792969 567.324219 573.757812 568.085938 C 521.734375 573.707031 510.484375 614.457031 475.585938 607.472656 C 457.605469 603.863281 433.070312 635.546875 405 637.46875 C 390.859375 638.4375 370.539062 640.730469 349.78125 644.589844 C 367.554688 648.636719 386 650.996094 405 650.996094 C 482.089844 650.996094 550.914062 615.773438 596.320312 560.546875 Z M 596.320312 560.546875 " fill-opacity="1" fill-rule="nonzero"/><path fill="#e85e00" d="M 525.921875 187.988281 C 547.976562 200.359375 567.832031 216.039062 585.027344 234.3125 C 642.675781 230.679688 677.832031 244.234375 674.890625 275.410156 C 673.363281 291.714844 661.351562 311.070312 641.773438 331.722656 C 592.988281 383.089844 495.765625 442.644531 385.582031 484.410156 C 309.003906 513.4375 240.753906 528.351562 191.96875 529.140625 C 142.328125 529.949219 112.867188 516.117188 115.550781 487.441406 C 117.3125 468.589844 132.957031 445.671875 158.414062 421.367188 C 157.972656 415.46875 157.511719 409.640625 157.511719 403.671875 C 157.511719 384.0625 160.03125 365.074219 164.359375 346.757812 C 64.800781 415.746094 0 491.71875 0 550.972656 C 0 631.617188 119.464844 656.386719 284.078125 619.359375 C 322.265625 610.777344 362.878906 598.867188 405 583.535156 C 495.257812 550.71875 578.316406 507.214844 645.664062 460.566406 C 745.199219 391.578125 810 315.605469 810 256.351562 C 810 175.730469 690.535156 150.9375 525.921875 187.988281 Z M 525.921875 187.988281 " fill-opacity="1" fill-rule="nonzero"/><path fill="#f4900c" d="M 135.523438 404.851562 C 118.351562 421.296875 103.84375 440.097656 92.015625 459.941406 C 80.675781 479.648438 71.027344 501.824219 72.484375 521.714844 C 73.292969 541.511719 88.265625 553.308594 108.539062 558.765625 C 128.765625 564.015625 151.238281 565.402344 174.125 564.0625 C 219.53125 562.003906 265.078125 554.464844 309.304688 541.742188 C 353.832031 530.0625 397.039062 513.414062 439.25 494.65625 C 523.675781 457.003906 602.824219 407.027344 673.734375 347.058594 C 682.25 339.355469 691.578125 332.046875 699.746094 324.253906 C 707.453125 316.460938 714.722656 307.765625 720.808594 298.882812 C 732.886719 281.121094 739.921875 260.328125 728.558594 244.488281 C 717.21875 228.390625 693.960938 219.625 671.789062 215.09375 C 649.085938 210.769531 625.273438 209.773438 601.667969 212.527344 C 624.625 206.398438 648.808594 203.390625 673.132812 205.21875 C 696.96875 207.34375 723.398438 212.15625 742.746094 233.457031 C 752.234375 244.023438 756.609375 259.9375 754.875 273.835938 C 753.554688 287.96875 748.09375 300.433594 741.84375 311.648438 C 735.410156 322.867188 728.191406 333.042969 719.972656 342.824219 C 711.828125 352.167969 703.566406 360.796875 695.164062 369.722656 C 627.308594 438.964844 546.125 494.933594 457.695312 535.292969 C 369.382812 575.070312 273.15625 602.613281 173.941406 598.984375 C 149.503906 598.058594 124.023438 595.90625 99.050781 586.308594 C 86.691406 581.476562 74.011719 574.351562 64.335938 562.8125 C 54.410156 551.480469 49.640625 535.730469 50.707031 521.785156 C 52.972656 493.730469 67 472.015625 81.925781 452.957031 C 97.292969 434.015625 115.414062 417.6875 135.523438 404.851562 Z M 135.523438 404.851562 " fill-opacity="1" fill-rule="nonzero"/></svg>